<svg width="50" height="50" viewBox="0 0 50 50" fill="none" xmlns="http://www.w3.org/2000/svg">
<path d="M25 22.8334H10.375V24.9167H25V22.8334Z" fill="#FF5E29"/>
<path d="M39.625 22.8334H25V24.9167H39.625V22.8334Z" fill="#D44D21"/>
<path d="M10.417 27.0834V45.8334H25.0003V27.0834H10.417ZM16.167 43.2917H12.9795V29.625H16.1253L16.167 43.2917ZM22.6045 43.2917H19.417V29.625H22.5628L22.6045 43.2917Z" fill="#FF5E29"/>
<path d="M25 27.0834V45.8334H39.5833V27.0834H25ZM30.5833 43.2917H27.4375V29.625H30.5833V43.2917ZM37.0208 43.2917H33.875V29.625H37.0208V43.2917Z" fill="#D44D21"/>
<path d="M38.5 16.9792L32.25 13.8125C31.692 15.2534 30.7149 16.494 29.4448 17.3741C28.1748 18.2542 26.6701 18.7335 25.125 18.75H25V20.8333H39.5833V18.75C39.5733 18.3859 39.468 18.0308 39.2779 17.72C39.0878 17.4093 38.8196 17.1539 38.5 16.9792Z" fill="#D44D21"/>
<path d="M24.8753 18.75C23.3266 18.7376 21.8174 18.2603 20.5433 17.3799C19.2691 16.4996 18.2888 15.2567 17.7295 13.8125L11.4795 16.9792C11.1638 17.1565 10.8997 17.4131 10.7134 17.7237C10.5271 18.0342 10.4249 18.3879 10.417 18.75V20.8333H25.0003V18.75H24.8753Z" fill="#FF5E29"/>
<path d="M25 4.16663V6.06246C26.2432 6.06246 27.4355 6.55632 28.3146 7.4354C29.1936 8.31447 29.6875 9.50676 29.6875 10.75V10.8958C29.682 12.1354 29.1857 13.3223 28.3072 14.1969C27.4287 15.0715 26.2396 15.5625 25 15.5625V17.4791C26.701 17.3839 28.3009 16.6412 29.4714 15.4033C30.6419 14.1655 31.2941 12.5265 31.2941 10.8229C31.2941 9.11926 30.6419 7.48028 29.4714 6.24243C28.3009 5.00459 26.701 4.26182 25 4.16663Z" fill="#D44D21"/>
<path d="M25.0002 15.5625C24.3811 15.5707 23.7666 15.4563 23.192 15.2257C22.6174 14.9951 22.0942 14.653 21.6525 14.2191C21.2109 13.7853 20.8596 13.2682 20.6189 12.6978C20.3782 12.1273 20.2529 11.5149 20.2502 10.8958V10.75C20.2501 10.1291 20.3734 9.5144 20.6129 8.94158C20.8524 8.36875 21.2032 7.8492 21.6451 7.4131C22.0871 6.977 22.6112 6.63303 23.1872 6.40117C23.7631 6.16931 24.3794 6.05418 25.0002 6.06246V4.16663C23.2992 4.26182 21.6993 5.00459 20.5288 6.24243C19.3583 7.48028 18.7061 9.11926 18.7061 10.8229C18.7061 12.5265 19.3583 14.1655 20.5288 15.4033C21.6993 16.6412 23.2992 17.3839 25.0002 17.4791V15.5625Z" fill="#FF5E29"/>
<path d="M25.9378 7.72913H24.042V13.8958H25.9378V7.72913Z" fill="#FF5E29"/>
</svg>
